<?xml version="1.0" encoding="UTF-8"?>
<svg id="Layer_1" xmlns="http://www.w3.org/2000/svg" version="1.1" viewBox="0 0 1000 295">
  <!-- Generator: Adobe Illustrator 29.0.0, SVG Export Plug-In . SVG Version: 2.1.0 Build 186)  -->
  <defs>
    <style>
      .st0 {
        fill: #bf0000;
      }

      .st1 {
        fill: #fff;
      }

      .st2 {
        fill: red;
      }
    </style>
  </defs>
  <g>
    <polygon class="st0" points=".5 291.9 167.1 3.3 215.2 86.4 .5 291.9"/>
    <polygon class="st0" points="285.7 208.8 .5 291.9 333.7 291.9 285.7 208.8"/>
    <polygon class="st2" points=".5 291.9 255.5 92.8 300.5 170.7 .5 291.9"/>
  </g>
  <g>
    <path class="st1" d="M498.8,45.9c-17.2-.8-33.3,3.9-46.6,12.6V3.3l-35.6,10.4v188.6h28.4l7.2-12.7c12.3,8,27,12.7,42.7,12.7,45,0,81.3-38.2,78.1-83.9-2.7-39.2-34.9-70.7-74.2-72.6h0ZM499.3,166.6c-27,2.7-49.5-19.9-46.9-46.9,2-20,18.1-36.1,38.1-38.1,27-2.7,49.5,19.9,46.9,46.9-2,20-18.1,36.1-38.1,38.1h0Z"/>
    <path class="st1" d="M760.1,46.3c-20.7-1-39.5,7.5-52.4,21.5-12.2-13.2-29.7-21.5-49.1-21.5s-25.1,3.7-35.4,10.1l-5.7-9.9h-25.8v156.5h35.6v-88.9c0-16.9,12.9-31.4,29.8-32.2,18-.9,32.9,13.5,32.9,31.3v89.8h35.6v-88.9c0-16.9,12.9-31.4,29.8-32.2,18-.9,32.9,13.5,32.9,31.3v89.8h35.6v-88.4c0-35.9-27.8-66.5-63.7-68.2h0Z"/>
    <path class="st1" d="M978.1,187.1c-6.7,4.6-13.6,8.1-20.6,10.6-9.8,3.5-20.7,5.2-32.9,5.2s-28.7-3.5-41-10.6c-12.3-7-22-16.4-29.1-28.1-7.1-11.7-10.7-24.9-10.7-39.6s3.4-27.7,10.3-39.5c6.9-11.9,16.2-21.3,28-28.3s24.8-10.4,39.1-10.4,27.4,3.5,38.7,10.6,20.2,16.7,26.7,28.8c6.5,12.2,9.7,26.1,9.7,41.7v10.4h-111.8c1.7,6,4.6,11.4,8.7,16.2,4.1,4.8,9,8.5,14.8,11.2,5.8,2.6,12.1,3.9,18.8,3.9s12.7-1,18.5-3,11.5-5.3,15.6-9.1M883.8,112.1h73.6c-1.5-6-4.1-11.2-7.7-15.8-3.6-4.5-7.9-8.1-12.9-10.6s-10.4-3.8-16.2-3.8-11.8,1.2-16.8,3.6c-5,2.4-9.2,5.9-12.6,10.4-3.4,4.5-5.8,9.9-7.4,16.1h0Z"/>
  </g>
  <g>
    <path class="st1" d="M437.1,272.8c1.4-.9,2.4-1.9,3.2-3.2.7-1.3,1.1-2,1.1-4.3s-.5-4.2-1.5-5.7c-1-1.6-2.4-2.7-4.3-3.5-1.9-.8-4.1-1.2-6.6-1.2h-12.2v37h0s13.8,0,13.8,0c2.5,0,4.6-.4,6.4-1.2,1.8-.8,3.2-1.9,4.2-3.5,1-1.5,1.5-3.5,1.5-5.6s-.5-3.9-1.4-5.3c-.9-1.4-2.3-2.6-4.1-3.5ZM428.7,259.9c2.1,0,3.7.4,4.8,1.3,1.1.9,1.7,2.2,1.7,3.9s-.5,3-1.5,3.9c-1.1.9-2.4,1.4-4.2,1.4h-6.7v-10.5h5.9ZM434.7,285c-1.1.9-2.7,1.4-4.6,1.4h-7.4v-10.9h6.5c2.3,0,4,.5,5.3,1.5s1.9,2.4,1.9,4.1-.6,2.9-1.7,3.9Z"/>
    <polygon class="st1" points="456.6 254.9 450.5 254.9 450.5 291.9 473.4 291.9 473.4 286.3 456.6 286.3 456.6 254.9"/>
    <path class="st1" d="M496.9,254.9h-6.2l-14.8,37h6.6l3.5-9.1h15.9l3.5,9.1h6.5l-14.8-37h-.3ZM488.1,277.4l5.9-15,5.9,15h-11.7Z"/>
    <path class="st1" d="M530,259.4c2,0,3.5.5,4.9,1.4,1.4.9,2.3,2.1,2.8,3.5l5.9-1.9c-.6-1.6-1.4-3-2.6-4.3-1.1-1.3-2.6-2.3-4.4-3s-2-1.1-6.2-1.1-7.4,1-9.7,2.9c-2.3,2-3.4,4.6-3.4,8.1s.4,3.5,1.2,4.8,1.9,2.4,3.3,3.3c1.4.9,3,1.5,4.7,2l4.5,1.2c1.9.5,3.4,1.2,4.5,2.1,1.1.9,1.7,1.9,1.7,3.5s-.7,2.8-2,3.8c-1.3.9-3.1,1.4-5.4,1.4s-3.7-.5-5-1.5c-1.3-.9-2.2-2.1-2.7-3.4l-6,1.9c.4,1,.9,2.1,1.7,3.1s1.8,1.9,3,2.7,2.6,1.4,4.2,1.9,3.4.7,5.3.7h0c2.9,0,5.3-.6,7.3-1.5,2-.9,3.5-2.2,4.5-3.8,1-1.6,1.5-3.2,1.5-5.6s-1-4.6-2.8-6.6-4.4-3.4-7.7-4.2l-4.5-1.1c-1.6-.4-2.8-.9-3.7-1.7-.9-.8-1.3-1.5-1.3-3.2s.6-3,1.7-4c1.1-.9,2.7-1.4,4.7-1.4Z"/>
    <polygon class="st1" points="548 260.5 559.4 260.5 559.4 291.9 565.5 291.9 565.5 260.5 576.9 260.5 576.9 254.9 548 254.9 548 260.5"/>
    <rect class="st1" x="583.3" y="254.9" width="6.1" height="37"/>
    <polygon class="st1" points="625.6 281.7 605.9 254.9 599.6 254.9 599.6 291.9 605.7 291.9 605.7 264.8 625.6 291.9 631.7 291.9 631.7 254.9 625.6 254.9 625.6 281.7"/>
    <path class="st1" d="M675.6,272.4h-14.8v4.9h9c-.1,1.6-.6,3.2-1.4,4.5-.9,1.5-2.2,2.7-3.8,3.5-1.6.9-2.9,1.3-5.5,1.3s-4.9-.5-6.9-1.7c-2-1.1-3.6-2.8-4.7-4.8-1.1-2.1-1.7-4.3-1.7-7s.6-5.1,1.7-7.1,2.7-3.7,4.6-4.8c1.9-1.1,4.2-1.7,6.7-1.7s2.5.3,3.8.7c1.3.5,2.4,1.1,3.5,1.9,1.1.9,1.9,1.8,2.6,2.8l5-3.2c-.9-1.5-2.2-2.9-3.7-4-1.5-1.1-3.2-2-5.1-2.7-1.9-.7-2.3-1-6.1-1s-7.1.9-10,2.5c-3,1.7-5.2,3.9-6.9,6.8-1.7,2.9-2.5,6.3-2.5,10s.8,7,2.5,9.9c1.7,2.9,4,5.2,6.9,6.8,2.9,1.7,6.3,2.5,10,2.5l.2-.2c3.3,0,6.2-.7,8.7-2,2.5-1.4,4.5-3.2,5.9-5.7,1.4-2.4,2.1-5.3,2.1-8.7h-.1s0-3.5,0-3.5Z"/>
    <path class="st1" d="M708.8,259.4c2,0,3.6.5,4.9,1.4,1.4.9,2.3,2.1,2.8,3.5l5.9-1.9c-.6-1.6-1.4-3-2.6-4.3-1.1-1.3-2.6-2.3-4.4-3s-2-1.1-6.2-1.1-7.4,1-9.7,2.9c-2.3,2-3.4,4.6-3.4,8.1s.4,3.5,1.2,4.8,1.9,2.4,3.3,3.3c1.4.9,3,1.5,4.7,2l4.5,1.2c1.9.5,3.4,1.2,4.5,2.1,1.1.9,1.7,1.9,1.7,3.5s-.7,2.8-2,3.8c-1.3.9-3.1,1.4-5.4,1.4s-3.7-.5-5-1.5c-1.3-.9-2.2-2.1-2.7-3.4l-6,1.9c.4,1,.9,2.1,1.7,3.1s1.8,1.9,3,2.7,2.6,1.4,4.2,1.9,3.4.7,5.3.7h0c2.9,0,5.3-.6,7.3-1.5,2-.9,3.5-2.2,4.5-3.8,1-1.6,1.5-3.2,1.5-5.6s-1-4.6-2.8-6.6-4.4-3.4-7.7-4.2l-4.5-1.1c-1.6-.4-2.8-.9-3.7-1.7-.9-.8-1.3-1.5-1.3-3.2s.6-3,1.7-4c1.1-.9,2.7-1.4,4.7-1.4Z"/>
    <path class="st1" d="M756.6,256.6c-2.8-1.7-6-2.5-9.7-2.5s-6.9.8-9.7,2.5c-2.8,1.7-5,3.9-6.6,6.8-1.6,2.9-2.4,6.3-2.4,10s.8,7,2.4,9.9c1.6,2.9,3.8,5.2,6.6,6.8,2.8,1.6,6,2.4,9.7,2.4h.2c3.6-.1,6.8-.9,9.6-2.5,2.8-1.7,4.9-4,6.5-6.8s2.4-6.2,2.4-9.9-.8-7-2.4-9.9c-1.6-2.9-3.8-5.1-6.6-6.8ZM757.5,280.4c-1,2-2.5,3.6-4.3,4.8-1.8,1.1-3.9,1.7-6.3,1.7h-.1c-2.5,0-4.6-.5-6.5-1.7-1.8-1.2-3.3-2.8-4.4-4.8s-1.6-4.4-1.6-7,.5-5,1.6-7c1.1-2.1,2.5-3.7,4.4-4.8,1.9-1.1,4-1.7,6.4-1.7s4.5.5,6.4,1.7c1.9,1.2,3.3,2.8,4.4,4.8s1.6,4.3,1.6,7-.6,5-1.6,7Z"/>
    <polygon class="st1" points="779.3 254.9 773.2 254.9 773.2 291.9 796.1 291.9 796.1 286.3 779.3 286.3 779.3 254.9"/>
    <polygon class="st1" points="816.7 292.6 816.7 292.6 816.7 292.6 816.7 292.6"/>
    <path class="st1" d="M825.5,278.3c0,1.7-.4,3.2-1.1,4.5s-1.7,2.3-3,3-2.9,1.1-4.6,1.1-3.2-.4-4.5-1.1-2.3-1.7-3-3c-.7-1.3-1.1-2.8-1.1-4.5v-23.5h-6.1v23.5c0,2.8.6,5.3,1.8,7.5,1.2,2.2,2.9,3.8,5.1,5s4.8,1.8,7.7,1.8,5.7-.6,7.9-1.8c2.3-1.2,4-2.8,5.2-5,1.2-2.1,1.8-4.6,1.8-7.5v-23.5h-6.1v23.5Z"/>
    <polygon class="st1" points="836.6 260.5 848 260.5 848 291.9 854.1 291.9 854.1 260.5 865.5 260.5 865.5 254.9 836.6 254.9 836.6 260.5"/>
    <rect class="st1" x="871.9" y="254.9" width="6.1" height="37"/>
    <path class="st1" d="M914.3,256.6c-2.8-1.7-6-2.5-9.7-2.5s-6.9.8-9.7,2.5c-2.8,1.7-5,3.9-6.6,6.8-1.6,2.9-2.4,6.3-2.4,10s.8,7,2.4,9.9c1.6,2.9,3.8,5.2,6.6,6.8,2.8,1.6,6,2.4,9.7,2.4h.2c3.6-.1,6.8-.9,9.6-2.5,2.8-1.7,4.9-4,6.5-6.8s2.4-6.2,2.4-9.9-.8-7-2.4-9.9c-1.6-2.9-3.8-5.1-6.6-6.8ZM915.2,280.4c-1,2-2.5,3.6-4.3,4.8-1.8,1.1-3.9,1.7-6.3,1.7h-.1c-2.5,0-4.6-.5-6.5-1.7-1.8-1.2-3.3-2.8-4.4-4.8s-1.6-4.4-1.6-7,.5-5,1.6-7c1.1-2.1,2.5-3.7,4.4-4.8,1.9-1.1,4-1.7,6.4-1.7s4.5.5,6.4,1.7c1.9,1.2,3.3,2.8,4.4,4.8s1.6,4.3,1.6,7-.6,5-1.6,7Z"/>
    <polygon class="st1" points="955.9 281.7 936.2 254.9 929.9 254.9 929.9 291.9 936 291.9 936 264.8 955.9 291.9 962 291.9 962 254.9 955.9 254.9 955.9 281.7"/>
    <path class="st1" d="M986,270.8l-4.5-1.1c-1.6-.4-2.8-.9-3.7-1.7-.9-.8-1.3-1.5-1.3-3.2s.6-3,1.7-4c1.1-.9,2.7-1.4,4.7-1.4s3.5.5,4.9,1.4c1.4.9,2.3,2.1,2.8,3.5l5.9-1.9c-.6-1.6-1.4-3-2.6-4.3-1.1-1.3-2.6-2.3-4.4-3s-2-1.1-6.2-1.1-7.4,1-9.7,2.9c-2.3,2-3.4,4.6-3.4,8.1s.4,3.5,1.2,4.8,1.9,2.4,3.3,3.3c1.4.9,3,1.5,4.7,2l4.5,1.2c1.9.5,3.4,1.2,4.5,2.1,1.1.9,1.7,1.9,1.7,3.5s-.7,2.8-2,3.8c-1.3.9-3.1,1.4-5.4,1.4s-3.7-.5-5-1.5c-1.3-.9-2.2-2.1-2.7-3.4l-6,1.9c.4,1,.9,2.1,1.7,3.1s1.8,1.9,3,2.7,2.6,1.4,4.2,1.9,3.4.7,5.3.7h0c2.9,0,5.3-.6,7.3-1.5,2-.9,3.5-2.2,4.5-3.8,1-1.6,1.5-3.2,1.5-5.6s-1-4.6-2.8-6.6-4.4-3.4-7.7-4.2l-4.5-1.1c-1.6-.4-2.8-.9-3.7-1.7-.9-.8-1.3-1.5-1.3-3.2s.6-3,1.7-4c1.1-.9,2.7-1.4,4.7-1.4Z"/>
  </g>
</svg>